<svg width="100" height="100" viewBox="0 15 100 70" fill="none" xmlns="http://www.w3.org/2000/svg">
    <defs>
        <linearGradient id="rGradient" x1="0" y1="0" x2="100" y2="100" gradientUnits="userSpaceOnUse">
            <stop offset="0%" stop-color="#2E5CFF" />
            <stop offset="100%" stop-color="#00F2FF" />
        </linearGradient>
    </defs>
    <path d="M10 20 L60 20 C80 20, 90 30, 90 50 L90 60 L70 60 L70 50 C70 40, 65 35, 55 35 L40 35 L40 35 L10 20 Z" fill="url(#rGradient)" />
    <path d="M90 80 L40 80 C20 80, 10 70, 10 50 L10 40 L30 40 L30 50 C30 60, 35 65, 45 65 L60 65 L60 65 L90 80 Z" fill="url(#rGradient)" />
</svg>
